<?xml version="1.0" encoding="utf-8"?>
<!-- Generator: Adobe Illustrator 21.1.0, SVG Export Plug-In . SVG Version: 6.00 Build 0)  -->
<svg version="1.1" id="Layer_1" xmlns="http://www.w3.org/2000/svg" xmlns:xlink="http://www.w3.org/1999/xlink" x="0px" y="0px"
	 viewBox="0 0 144 144" enable-background="new 0 0 144 144" xml:space="preserve">
<g>
	<path fill="none" stroke="#16A085" stroke-linecap="round" stroke-linejoin="round" stroke-miterlimit="10" d="M27.374,110.221
		c-0.877-1.05-1.424-2.398-1.424-3.873V58.876c0-3.341,2.709-6.05,6.05-6.05h62.304"/>
	<path fill="none" stroke="#3D6CB4" stroke-linecap="round" stroke-linejoin="round" stroke-miterlimit="10" d="M32.001,112.399"/>
	<path fill="none" stroke="#16A085" stroke-linecap="round" stroke-linejoin="round" stroke-miterlimit="10" d="M118.929,76.419
		v29.93c0,1.481-0.518,2.821-1.402,3.873"/>
	<path fill="none" stroke="#16A085" stroke-linecap="round" stroke-linejoin="round" stroke-miterlimit="10" d="M115.38,76.419
		v24.109c0,3.341-2.709,6.05-6.05,6.05H35.55c-3.341,0-6.05-2.709-6.05-6.05V61.989c0-3.341,2.709-6.05,6.05-6.05h59.351"/>
	<path fill="none" stroke="#16A085" stroke-linecap="round" stroke-linejoin="round" stroke-miterlimit="10" d="M125.78,110.221
		H19.099c-1.567,0-2.838,1.271-2.838,2.838l0,0c0,1.567,1.271,2.838,2.838,2.838H125.78c1.567,0,2.838-1.271,2.838-2.838l0,0
		C128.618,111.492,127.347,110.221,125.78,110.221z"/>
	<path opacity="0.3" fill="#16A085" enable-background="new    " d="M89.825,113.059h-34.77c-0.78,0-1.419-0.639-1.419-1.419l0,0
		c0-0.78,0.639-1.419,1.419-1.419h34.77c0.78,0,1.419,0.639,1.419,1.419l0,0C91.244,112.42,90.605,113.059,89.825,113.059z"/>
	<path fill="none" stroke="#16A085" stroke-linecap="round" stroke-linejoin="round" stroke-miterlimit="10" d="M89.825,113.059
		h-34.77c-0.78,0-1.419-0.639-1.419-1.419l0,0c0-0.78,0.639-1.419,1.419-1.419h34.77c0.78,0,1.419,0.639,1.419,1.419l0,0
		C91.244,112.42,90.605,113.059,89.825,113.059z"/>
	
		<line fill="none" stroke="#16A085" stroke-linecap="round" stroke-linejoin="round" stroke-miterlimit="10" x1="38.36" y1="66.555" x2="70.36" y2="66.555"/>
	
		<line fill="none" stroke="#16A085" stroke-linecap="round" stroke-linejoin="round" stroke-miterlimit="10" x1="38.36" y1="82.555" x2="87.36" y2="82.555"/>
	
		<line fill="none" stroke="#16A085" stroke-linecap="round" stroke-linejoin="round" stroke-miterlimit="10" x1="38.36" y1="74.555" x2="75.36" y2="74.555"/>
	<path opacity="0.3" fill="#16A085" enable-background="new    " d="M138.894,51.196l-4.247,22.191c0,1.592-1.129,2.883-2.523,2.883
		h-31.361c-1.393,0-2.523-1.291-2.523-2.883l-4.247-22.191"/>
	<path fill="none" stroke="#16A085" stroke-linecap="round" stroke-linejoin="round" stroke-miterlimit="10" d="M138.894,51.196
		l-4.247,22.191c0,1.592-1.129,2.883-2.523,2.883h-31.361c-1.393,0-2.523-1.291-2.523-2.883l-4.247-22.191"/>
	<path fill="none" stroke="#16A085" stroke-linecap="round" stroke-linejoin="round" stroke-miterlimit="10" d="M132.147,46.207
		h7.81c1.367,0,2.486,1.118,2.486,2.485l0,0c0,1.367-1.118,2.485-2.486,2.485H92.969c-1.367,0-2.485-1.118-2.485-2.485l0,0
		c0-1.367,1.118-2.485,2.485-2.485h8.536"/>
	
		<line fill="none" stroke="#16A085" stroke-linecap="round" stroke-linejoin="round" stroke-miterlimit="10" x1="105.721" y1="46.207" x2="127.931" y2="46.207"/>
	<g>
		<path fill="#16A085" enable-background="new    " d="M129.118,48.262l-8.904-15.422c-0.502-0.869-0.201-1.992,0.668-2.494l0,0
			c0.869-0.502,1.992-0.201,2.494,0.668l8.904,15.422c0.502,0.869,0.201,1.992-0.668,2.494l0,0
			C130.742,49.432,129.62,49.132,129.118,48.262z"/>
		<path fill="none" stroke="#16A085" stroke-linecap="round" stroke-linejoin="round" stroke-miterlimit="10" d="M129.118,48.262
			l-8.904-15.422c-0.502-0.869-0.201-1.992,0.668-2.494l0,0c0.869-0.502,1.992-0.201,2.494,0.668l8.904,15.422
			c0.502,0.869,0.201,1.992-0.668,2.494l0,0C130.742,49.432,129.62,49.132,129.118,48.262z"/>
	</g>
	<g>
		<path fill="#16A085" enable-background="new    " d="M104.534,48.262l8.904-15.422c0.502-0.869,0.201-1.992-0.668-2.494l0,0
			c-0.869-0.502-1.992-0.201-2.494,0.668l-8.904,15.422c-0.502,0.869-0.201,1.992,0.668,2.494l0,0
			C102.91,49.432,104.032,49.132,104.534,48.262z"/>
		<path fill="none" stroke="#16A085" stroke-linecap="round" stroke-linejoin="round" stroke-miterlimit="10" d="M104.534,48.262
			l8.904-15.422c0.502-0.869,0.201-1.992-0.668-2.494l0,0c-0.869-0.502-1.992-0.201-2.494,0.668l-8.904,15.422
			c-0.502,0.869-0.201,1.992,0.668,2.494l0,0C102.91,49.432,104.032,49.132,104.534,48.262z"/>
	</g>
	
		<line fill="none" stroke="#16A085" stroke-linecap="round" stroke-linejoin="round" stroke-miterlimit="10" x1="105.397" y1="57.451" x2="107.349" y2="69.76"/>
	
		<line fill="none" stroke="#16A085" stroke-linecap="round" stroke-linejoin="round" stroke-miterlimit="10" x1="128.18" y1="57.451" x2="126.227" y2="69.76"/>
	
		<line fill="none" stroke="#16A085" stroke-linecap="round" stroke-linejoin="round" stroke-miterlimit="10" x1="116.86" y1="58.055" x2="116.86" y2="70.055"/>
	<path fill="#16A085" enable-background="new    " d="M104.167,99.27H40.712c-1.329,0-2.417-1.088-2.417-2.417v-4.32
		c0-1.329,1.087-2.417,2.417-2.417h63.455c1.329,0,2.417,1.088,2.417,2.417v4.32C106.584,98.183,105.497,99.27,104.167,99.27z"/>
	<path fill="none" stroke="#3D6CB4" stroke-linecap="round" stroke-linejoin="round" stroke-miterlimit="10" d="M138.894,51.196"/>
</g>
</svg>
