<?xml version="1.0" encoding="utf-8"?>
<!-- Generator: Adobe Illustrator 21.1.0, SVG Export Plug-In . SVG Version: 6.00 Build 0)  -->
<svg version="1.1" id="Layer_1" xmlns="http://www.w3.org/2000/svg" xmlns:xlink="http://www.w3.org/1999/xlink" x="0px" y="0px"
	 viewBox="0 0 144 144" enable-background="new 0 0 144 144" xml:space="preserve">
<g>
	<path fill="none" stroke="#16A085" stroke-linecap="round" stroke-linejoin="round" stroke-miterlimit="10" d="M77.732,111.245
		c-4.11,1.372-8.654,2.146-13.226,2.146c-22.804,0-41.29-18.486-41.29-41.29s18.486-41.29,41.29-41.29
		c21.724,0,39.529,16.977,41.167,38.281"/>
	<g>
		<path opacity="0.3" fill="#16A085" enable-background="new    " d="M64.412,113.388c0.032,0,0.062,0.002,0.094,0.002v-0.062
			C64.475,113.348,64.444,113.37,64.412,113.388z"/>
		<path opacity="0.3" fill="#16A085" enable-background="new    " d="M64.506,30.873v-0.062c-0.032,0-0.062,0.002-0.094,0.002
			C64.444,30.832,64.475,30.854,64.506,30.873z"/>
		<path opacity="0.3" fill="#16A085" enable-background="new    " d="M41.122,72.101c0-17.81,9.789-33.405,23.283-41.287
			c-22.757,0.055-41.188,18.518-41.188,41.287c0,22.77,18.431,41.232,41.188,41.287C50.907,105.507,41.122,89.914,41.122,72.101z"/>
	</g>
	<g>
		<path fill="none" stroke="#16A085" stroke-linecap="round" stroke-linejoin="round" stroke-miterlimit="10" d="M64.409,113.391
			c-13.499-7.881-23.287-23.475-23.287-41.29c0-17.812,9.791-33.408,23.287-41.29V113.391z"/>
		<path fill="none" stroke="#16A085" stroke-linecap="round" stroke-linejoin="round" stroke-miterlimit="10" d="M87.615,67.171
			c-1.695-15.648-11.02-29.243-23.206-36.36v82.58c3.165-1.848,6.286-4.224,8.981-6.849"/>
	</g>
	<path fill="none" stroke="#3D6CB4" stroke-linecap="round" stroke-linejoin="round" stroke-miterlimit="10" d="M63.153,113.391"/>
	<path fill="none" stroke="#3D6CB4" stroke-linecap="round" stroke-linejoin="round" stroke-miterlimit="10" d="M63.153,30.811"/>
	<path fill="none" stroke="#16A085" stroke-linecap="round" stroke-linejoin="round" stroke-miterlimit="10" d="M94.532,43.694
		C91.39,49.429,79.14,53.706,64.506,53.706c-14.588,0-26.808-4.251-29.996-9.96"/>
	<path fill="none" stroke="#16A085" stroke-linecap="round" stroke-linejoin="round" stroke-miterlimit="10" d="M34.795,100.768
		c3.58-5.47,15.526-9.49,29.711-9.49c1.357,0,2.694,0.037,4.005,0.108"/>
	
		<line fill="none" stroke="#16A085" stroke-linecap="round" stroke-linejoin="round" stroke-miterlimit="10" x1="77.507" y1="72.493" x2="23.231" y2="72.481"/>
	<g>
		<path fill="none" stroke="#16A085" stroke-linecap="round" stroke-linejoin="round" stroke-miterlimit="10" d="M139.908,121.11
			c-0.589,0.914-1.504,1.5-2.499,1.716c-0.995,0.215-2.07,0.061-2.984-0.528l-21.145-13.616c-0.026-0.017-0.051-0.033-0.08-0.06
			c-3.47,3.932-8.172,6.834-13.687,8.028c-13.739,2.976-27.286-5.748-30.262-19.487C66.277,83.423,75,69.876,88.74,66.9
			c13.739-2.976,27.286,5.748,30.262,19.487c1.176,5.43,0.527,10.823-1.542,15.549c0.049,0.023,0.088,0.047,0.126,0.072
			l21.132,13.608C140.559,116.803,141.094,119.269,139.908,121.11z"/>
		
			<ellipse transform="matrix(0.9773 -0.2117 0.2117 0.9773 -17.2944 22.0073)" fill="#16A085" enable-background="new    " cx="94.126" cy="91.768" rx="19.494" ry="19.494"/>
		
			<ellipse transform="matrix(0.9773 -0.2117 0.2117 0.9773 -17.2944 22.0073)" fill="none" stroke="#16A085" stroke-linecap="round" stroke-linejoin="round" stroke-miterlimit="10" cx="94.126" cy="91.768" rx="19.494" ry="19.494"/>
	</g>
</g>
</svg>
