<?xml version="1.0" encoding="utf-8"?>
<!-- Generator: Adobe Illustrator 21.1.0, SVG Export Plug-In . SVG Version: 6.00 Build 0)  -->
<svg version="1.1" id="Layer_1" xmlns="http://www.w3.org/2000/svg" xmlns:xlink="http://www.w3.org/1999/xlink" x="0px" y="0px"
	 viewBox="0 0 144 144" style="enable-background:new 0 0 144 144;" xml:space="preserve">
<style type="text/css">
	.st0{opacity:0.3;fill:#16A085;enable-background:new    ;}
	.st1{opacity:0.3;fill:none;stroke:#16A085;stroke-linecap:round;stroke-linejoin:round;stroke-miterlimit:10;}
	.st2{opacity:0.7;fill:#16A085;stroke:#16A085;stroke-miterlimit:10;}
	.st3{fill:none;stroke:#16A085;stroke-linecap:round;stroke-linejoin:round;stroke-miterlimit:10;}
	.st4{opacity:0.7;fill:#16A085;}
</style>
<g>
	<rect x="47" y="104.9" class="st0" width="21" height="5"/>
	<path class="st1" d="M9.3,36.5v-2.1c0-3.6,2.9-6.5,6.5-6.5h83.6c3.6,0,6.5,2.9,6.5,6.5v2.1C105.8,36.5,9.3,36.5,9.3,36.5z"/>
	<path class="st2" d="M99.5,22.4H15.7c-6.6,0-12,5.4-12,12v58.8c0,6.6,5.4,12,12,12h76V88h-76c-3.6,0-6.5-2.9-6.5-6.5V34.8
		c0-3.6,2.9-6.5,6.5-6.5h83.6c3.6,0,6.5,2.9,6.5,6.5v21.7h5.7v-22C111.5,27.8,106.1,22.4,99.5,22.4z M57.6,93c2,0,3.6,1.6,3.6,3.6
		s-1.6,3.6-3.6,3.6S54,98.6,54,96.6S55.6,93,57.6,93z"/>
	<circle class="st3" cx="57.6" cy="96.6" r="3.6"/>
	<path class="st3" d="M68.1,105.2c0,0-1.9,12.3,7.5,12.3c-11.4,0-18.7,0-18.7,0H58c0,0-7,0-18.5,0c9.4,0,7.3-12.2,7.3-12.2"/>
	<rect x="16.5" y="42.9" class="st3" width="36" height="13.4"/>
	<g>
		<line class="st3" x1="58.4" y1="44.6" x2="88.4" y2="44.6"/>
		<line class="st3" x1="58.4" y1="50.6" x2="93.4" y2="50.6"/>
		<line class="st3" x1="58.4" y1="54.6" x2="88.4" y2="54.6"/>
	</g>
	<rect x="16.5" y="63.8" class="st3" width="18" height="18"/>
	<rect x="41" y="63.8" class="st3" width="18" height="18"/>
	<rect x="65.5" y="63.8" class="st3" width="18" height="18"/>
	<path class="st4" d="M134.7,56.7H96.6c-2.7,0-4.8,2.2-4.8,4.8v58.6c0,2.7,2.2,4.8,4.8,4.8h38.1c2.7,0,4.8-2.2,4.8-4.8V61.5
		C139.5,58.8,137.4,56.7,134.7,56.7z M116.5,121.5c-1.2,0-2.2-1-2.2-2.2s1-2.2,2.2-2.2s2.2,1,2.2,2.2S117.7,121.5,116.5,121.5z
		 M136.2,110.8c0,1.7-1.4,3.1-3.1,3.1H98.2c-1.7,0-3.1-1.4-3.1-3.1V63.7c0-1.7,1.4-3.1,3.1-3.1h34.9c1.7,0,3.1,1.4,3.1,3.1V110.8z"
		/>
	<rect x="100.3" y="65.6" class="st3" width="31.2" height="25.6"/>
	<line class="st3" x1="101.4" y1="98.6" x2="125.4" y2="98.6"/>
	<line class="st3" x1="101.4" y1="102.6" x2="121.4" y2="102.6"/>
</g>
</svg>
