<svg id="Layer_1" xmlns="http://www.w3.org/2000/svg" viewBox="0 0 2500 830"><style>.st0{fill:#666;transition:.5s} svg:hover .st0{fill:#2D4F9E;}</style><path class="st0" d="M2498.4 197.6c-34-195.2-620.5-256.1-1310-136.1-289.6 50.4-551 124.8-754.7 208.5 31.3.7 54.5 7.9 68.6 21.9 11 11 16.6 26.2 16.6 45v19.4h-67.6v-17.1c0-14.2-8.5-23.1-23.7-23.1-12.7 0-20.5 5.7-23.1 17-.8 4.5-.8 9.1.3 13.5 7.2 29.6 107.6 47.9 118.6 102.5 1.4 7 3.4 22.1.3 43.6-6.3 44-44.9 61-94.2 61-68.7 0-96.6-32.5-96.6-77.4v-21.2h72.5v26.4c0 14.9 10.8 23.1 25.5 23.1 13.9 0 22.1-5.6 24.9-17.1 1.3-5.3 1.9-13.1-.5-19-13.3-33.5-107-49.3-118.6-103.7-2.6-12.2-2.8-22.6-.6-35.8 1.1-6.5 3.1-12.9 6-18.8C116.2 415.9-15.9 532.1 1.6 632.4c34 195.2 620.5 256.1 1310 136 303.1-52.8 575.6-131.7 783-220.2-3 .1-5.9.5-9 .5-47.2 0-89.3-17.7-93.7-65.9-.8-8.8-.9-12.5-.9-17.5V354.4c0-4.8.6-13.2 1.1-17.5 5.6-46.6 42.4-65.8 93.5-65.8 39.5 0 88 11.3 93.3 65.9.7 6.8.6 14.2.6 16.6V364h-68.3v-15.6c0-.3-.1-6.2-.8-9.8-1.1-5.6-5.9-18.5-25.3-18.5-19.2 0-24.2 12.9-25.4 18.5-.7 3.1-1 7.4-1 12.3v120.5c-.1 4.2.1 7.5.6 9.9.3 1.9 3.8 18.5 26.1 18.5 22.2 0 25.6-16.6 25.9-18.5.6-3.3.7-7.1.6-9.9V434H2085v-40.2h95v71.5c0 4.9-.1 8.5-.9 17.4-1.1 12.7-5.1 23.4-11.4 32.5 219.9-104.4 348-218.7 330.7-317.6zM710.6 543.5l-34.6-235h-1.2l-35.5 235h-72.9l49-265.4h118.9L783 543.5h-72.4zm350.6 0l-1.6-230.5h-1.2l-42.9 230.5h-68.4L904.4 313h-1.2l-1.6 230.5h-67.8l5.9-265.4h109l31.8 197.2h1.6l31.8-197.2h109l5.9 265.4h-67.6zm319.3-51.4c-7.3 51.4-57.7 60.4-93.3 60.4-59.1 0-95.7-25.3-95.7-76.7v-21h71.6v26.1c0 14.2 10 22.9 25.4 22.9 13.8 0 21.8-5.5 24.6-16.9 1.3-5.3 1.8-13-.5-18.8-13.2-33-106.2-49.2-117.5-102.7-2.6-12.1-2.8-22.4-.6-35.5 7.9-48.5 54.5-58.6 92-58.6 33.5 0 58 7.3 72.6 22 10.9 10.9 16.4 25.9 16.4 44.6V357h-67v-16.9c0-14.5-9-22.8-23.4-22.8-12.8 0-20.5 5.7-23.1 16.9-.8 4.4-.7 9 .3 13.3 7.2 29.4 106.7 47.4 117.6 101.5 1.7 6.9 3.6 21.7.6 43.1zm248-24.1c.1 5-.4 14.9-.7 17.5-4.1 43.7-35.4 66-92.7 66-57.6 0-88.9-22.2-92.9-66-.5-5.8-.7-11.6-.7-17.4v-190h68.5v196c-.1 4.4.1 7.6.6 9.9.8 4.4 5.2 18.5 24.5 18.5s23.6-14.2 24.5-18.5c.4-2.3.6-5.7.6-9.9v-196h68.2V468zm295.2 72.8h-95.3l-64-210.2h-1.1l3.5 210.2h-66.4V278.1h99.3l59.1 202h1.4l-3.5-202h66.9l.1 262.7z"/></svg>