<?xml version="1.0" encoding="utf-8"?>
<!-- Generator: Adobe Illustrator 21.1.0, SVG Export Plug-In . SVG Version: 6.00 Build 0)  -->
<svg version="1.1" id="Layer_1" xmlns="http://www.w3.org/2000/svg" xmlns:xlink="http://www.w3.org/1999/xlink" x="0px" y="0px"
	 viewBox="0 0 2135.6 688.9" style="enable-background:new 0 0 2135.6 688.9;" xml:space="preserve">
<style type="text/css">
	.st0{fill:#666666;}
</style>
<path xmlns:cc="http://creativecommons.org/ns#" xmlns:dc="http://purl.org/dc/elements/1.1/" xmlns:inkscape="http://www.inkscape.org/namespaces/inkscape" xmlns:rdf="http://www.w3.org/1999/02/22-rdf-syntax-ns#" xmlns:sodipodi="http://sodipodi.sourceforge.net/DTD/sodipodi-0.dtd" xmlns:svg="http://www.w3.org/2000/svg" class="st0" d="
	M9.4,0v688.8H227V440.1h151.2L437,289.5H227V149.8h255.5L538.2,0H9.4 M604.7,0l-0.4,688.8h215V0H604.7 M1663.3,463.8l82.8-286.8
	l85.8,286.8H1663.3L1663.3,463.8z M1861.2,0H1638l-247.6,688.9h207.8l26.7-92.6h242.3l28,92.6h214.2L1861.2,0 M967.9,0v688.8h217.4
	V440.1h151l59.2-150.6h-210.2V149.8h255.6L1497.1,0H967.9"/>
</svg>
