<svg id="Layer_1" xmlns="http://www.w3.org/2000/svg" viewBox="0 0 2500 351"><style>.st0{fill:#666;transition:.5s} svg:hover .st0{fill:#10111C;}</style><path class="st0" d="M327.4 1v200.3c0 68.5-33.1 109-132.4 109-99.6 0-132.8-40.5-132.8-109V60.5C60.9 27.1 33.6.3 0 .3v38.9c12.2 0 21.8 9.4 23 21.3V215c0 79.4 62.3 135.8 172 135.8 109.6 0 171.6-56.4 171.6-135.8V1h-39.2zm1140 303.6v-93.8c0-12.9 11-23.5 23.6-23.7h171v-39.5h-171.6c-7.9.2-15.8 1.9-23.1 5v-113h279V.2h-318.7V344H1758v-39.3l-290.6-.1zm707.3-132.2c-8.3 0-16.1 1.7-23.4 4.6l-.3-139.7 215.4-.1c37.3-.1 67.6 30.1 67.6 67.4v.2c0 37.4-30.2 67.7-67.6 67.7l-191.7-.1zM2475.9 307c-9.5 7.6-22.9 6.1-31.1-2.7l-75.2-95.5c56.2-1.7 101.1-47.7 101.1-104.2 0-57.8-46.8-104.5-104.5-104.5h-254.5V344h39.3l.4-112c.4-12.5 11-22.9 23.7-22.9h144.8l94.1 119.4c21.7 25.6 59.7 29.8 86.1 9.1l-24.2-30.6zm-1500.1 0l-217-.2v-97.5c.2-13 11-24.1 23.9-24.1h193.2c33.7 0 60.8 27.2 60.8 60.7-.1 33.9-27.3 61.1-60.9 61.1M758.7 37.3l218 .2c30.5 0 55.3 24.8 55.3 55.4 0 30.4-24.7 55.2-55.3 55.2H779.3c-7.1.5-14.1 2.1-20.6 4.9V37.3zm273.7 129c22.1-16.9 36.6-43.4 36.6-73.6 0-51-41.4-92.5-92.5-92.5H719.4V344h256.3c54.1 0 97.8-43.9 97.8-98 .1-32.9-16.2-61.9-41.1-79.7"/></svg>