<svg id="Layer_1" xmlns="http://www.w3.org/2000/svg" viewBox="0 0 2500 1430"><style>.st0{ fill:#666; transition: .5s; } svg:hover .st0{fill:#FF6600;}</style><path class="st0" d="M140.5 558.8c-5.3 0-9.7 4.3-10.3 10.1l-24.4 222.6 24.4 217.7c.7 5.8 5 10 10.3 10 5.2 0 9.5-4.2 10.3-10l27.7-217.7-27.7-222.7c-.9-5.8-5.1-10-10.3-10zm-91.7 85.3c-5.2 0-9.3 4-9.9 9.7L20.7 791.6l18.2 135.3c.7 5.7 4.7 9.7 9.9 9.7 5 0 9.1-4 9.9-9.7l21.4-135.3-21.4-137.8c-.8-5.7-4.9-9.7-9.9-9.7zm189-128.9c-6.5 0-11.7 5.1-12.4 12.2l-23.1 264.2 23.1 254.4c.7 7.1 5.9 12.2 12.4 12.2 6.4 0 11.6-5.1 12.5-12.1l26.2-254.5-26.2-264.2c-.8-7.1-6.1-12.2-12.5-12.2zm98.2-9.3c-7.7 0-13.9 6.1-14.5 14.3l-21.9 271.4 21.9 262.6c.6 8.1 6.8 14.3 14.5 14.3s13.9-6.1 14.6-14.3l24.8-262.6-24.8-271.5c-.7-8.1-6.9-14.2-14.6-14.2zm115.6 33.8c-.6-9.3-7.8-16.3-16.6-16.3-9 0-16.1 7-16.7 16.5l-20.6 251.7 20.6 264.8c.6 9.4 7.7 16.5 16.7 16.5 8.8 0 16-7.1 16.6-16.5l23.5-264.8-23.5-251.9zm83.3-176.2c-10 0-18.3 8.1-18.8 18.7l-19.4 409.7 19.4 264.7c.5 10.3 8.7 18.6 18.8 18.6 9.8 0 18.1-8.3 18.7-18.7v.1l21.9-264.7L553.6 382c-.6-10.4-8.9-18.5-18.7-18.5zm99-94.5c-11.3 0-20.4 9.2-20.9 20.7l-18.1 503.4 18.1 263.1c.5 11.5 9.7 20.6 20.9 20.6 11.1 0 20.4-9.2 20.8-20.7v.1l20.6-263.1-20.6-503.4c-.4-11.5-9.7-20.7-20.8-20.7zm103-45.4c-12.5 0-22.6 10-23 22.9l-17 545.3 17 260.3c.4 12.7 10.5 22.7 23 22.7 12.3 0 22.4-10 22.9-22.8v.2l19-260.4-19-545.3c-.5-12.9-10.6-22.9-22.9-22.9zm127.2 4.5c-.5-14-11.5-25-25.1-25-13.7 0-24.8 11-25.1 25l-15.7 563.7 15.7 258.8c.2 13.7 11.4 24.8 25.1 24.8 13.6 0 24.6-11 25.1-25l17.6-258.6-17.6-563.7zm0 822.4v.2-.2zM942 215.4c-14.9 0-26.9 11.9-27.2 27.1l-14.4 549.3 14.4 256.3c.3 15.1 12.3 27 27.2 27s26.8-12 27.3-27.2v.3l16.1-256.4-16.1-549.3c-.5-15.1-12.5-27.1-27.3-27.1zm103.8 18c-16.1 0-29 12.9-29.4 29.3l-13.1 529.2 13.1 254.6c.3 16.2 13.2 29.1 29.3 29.1s29.1-12.9 29.4-29.3v.2l14.8-254.6-14.8-529.3c-.1-16.1-13.2-29.1-29.3-29.2zm121.9-97.3c-5.1-3.4-11.2-5.3-17.3-5.3-6.3 0-12.1 1.9-17 5.1-8.9 5.8-14.3 15.6-14.4 26.2l-.2 6-11.8 623.7c0 .4 11.9 253.1 11.9 253.1v1c.4 7.1 3 13.6 7.4 18.8 5.9 7.2 14.7 11.4 24.1 11.5 8.5 0 16.3-3.6 22-9.3 5.7-5.7 9.3-13.5 9.5-22.1l1.3-25.1 11.9-227.8-13.3-629.8c-.2-10.4-5.4-20.1-14.1-26zm14.1 908.9v-.1.1-.2.2zm89.8-968.6c-12-7.4-27.4-6.2-38.2 2.8-7.7 6.3-12.3 15.8-12.4 25.8l-.1 3.5-13.8 683.5 7 126.3 6.8 123c.2 18.2 15.3 33.2 33.5 33.2 18.3 0 33.4-15.1 33.6-33.5v.3l15-249.3-14.9-687c-.2-11.7-6.5-22.5-16.5-28.6zm923.5 390.5c-41.8 0-81.6 8.4-118 23.7C2052.8 215.7 1822.3.2 1541.3.2c-66.7.1-132.9 12.4-195.2 36.4-23 8.9-29.1 18.1-29.3 35.9v967.9c.3 18.7 14.7 33.1 32.9 34.9.8.1 845.3 0 845.3 0 168.5 0 304.9-134.9 304.9-303.4.1-168.5-136.4-305-304.8-305zm-1931 791.9c-35.7-8.4-45.4-13-45.4-27.1 0-9.9 8-20.3 32.2-20.3 20.6 0 36.7 8.3 51.2 23.2l32.6-31.5c-21.3-22.2-47.1-35.5-82.2-35.5-44.4 0-80.5 25.2-80.5 66.1 0 44.4 29 57.7 70.6 67.2 42.5 9.7 50.2 16.2 50.2 30.7 0 17-12.6 24.5-39.3 24.5-21.6 0-41.8-7.5-57.7-25.9l-32.5 29c17 25.1 49.9 40.9 87.6 40.9 61.5 0 88.6-28.9 88.6-71.8.1-49-39.6-61.1-75.4-69.5zm207.5-91.2c-61.5 0-97.8 47.7-97.8 116.3 0 68.7 36.4 116.3 97.8 116.3 61.6 0 97.9-47.6 97.9-116.3 0-68.6-36.3-116.3-97.9-116.3zm0 187.9c-36.4 0-51.5-31.3-51.5-71.6s15.1-71.5 51.5-71.5c36.5 0 51.6 31.3 51.6 71.5s-15.1 71.6-51.6 71.6zm279.9-57.7c0 36-17.7 58.3-46.3 58.3-28.7 0-46.1-22.9-46.1-59v-126H614v126.6c0 65.7 36.7 102.4 91.2 102.4 57.3 0 91.4-37.7 91.4-103v-126h-45.1v126.7zm239.7-31.2c0 12.5.6 40.9.6 49.2-2.8-5.8-10.2-17-15.7-25.5l-79.9-119.1H853v225.5h44.5v-99.2c0-12.6-.7-40.9-.7-49.2 2.9 5.8 10.3 17 15.7 25.5l82.9 123h40.2v-225.5h-44.4v95.3zm172.9-95.4h-70.4v225.5h67.2c58 0 115.4-33.5 115.4-112.8 0-82.5-47.8-112.7-112.2-112.7zm-3.2 181.6h-22.2V1215h24c47.6 0 67.3 22.8 67.3 68.8-.1 41.4-21.8 69-69.1 69zm254.8-140.4c20.3 0 33.1 9.1 41.3 24.4l41.7-19.2c-14.2-29.4-39.8-50-82.4-50-59 0-100.2 47.7-100.2 116.3 0 71.2 39.6 116.3 98.6 116.3 40.9 0 67.9-18.9 83.4-51l-38.1-22.5c-11.9 20-23.8 28.8-44.1 28.8-33.8 0-53.5-31.1-53.5-71.6.1-41.9 19.5-71.5 53.3-71.5zm167.3-41.2h-45.1v225.5h135.6v-44.4H1583v-181.1zm209.1-3.6c-61.5 0-97.9 47.7-97.9 116.3 0 68.7 36.5 116.3 97.9 116.3 61.6 0 98-47.6 98-116.3 0-68.6-36.4-116.3-98-116.3zm0 187.9c-36.4 0-51.5-31.3-51.5-71.6s15.2-71.5 51.5-71.5c36.5 0 51.5 31.3 51.5 71.5.1 40.2-15 71.6-51.5 71.6zm280-57.7c0 36-17.6 58.3-46.3 58.3-28.7 0-46.1-22.9-46.1-59v-126h-45.1v126.6c0 65.7 36.7 102.4 91.2 102.4 57.3 0 91.5-37.7 91.5-103v-126h-45.2v126.7zm172-126.6h-70.6v225.5h67.2c58.1 0 115.4-33.5 115.4-112.8 0-82.5-47.5-112.7-112-112.7zm-3.3 181.6h-22.1V1215h23.8c47.6 0 67.2 22.8 67.2 68.8 0 41.4-21.5 69-68.9 69z"/></svg>