<svg id="Layer_1" xmlns="http://www.w3.org/2000/svg" viewBox="0 0 2279.4 592"><style>.st0,.st1{ fill:#666666; transition:.5s } svg:hover .st0 {fill:#000} svg:hover .st1 {fill:#cc2131}</style><path class="st0" d="M888 421.4L856.9 566h-71.5L903.6 42H988l111.2 524h-71.6l-30.4-145H888v.4zm99.9-58.4l-24.1-125.2c-7-35.8-14-82.5-19.4-119.8h-3.1c-5.5 38.1-13.3 86.3-20.3 119.8L896.1 363h91.8zM1372 27v441.5c0 28.9 1.6 71 3.1 97.5H1312l-4.7-46h-1.6c-12.5 26.4-41.2 52.1-79.5 52.1-70 0-112.9-76.4-112.9-193.9 0-133.9 56.8-197 116.8-197 30.3 0 54.5 14 67.7 42.8h1.1V27h73.1zm-72 304.6c-.7-7-.7-15.6-1.5-23.4-3.9-34.2-23.3-63.8-49.8-63.8-45.9 0-61.5 63.8-61.5 133.8 0 77.8 20.2 132.3 59.1 132.3 16.3 0 38.1-8.6 50.6-53.7 1.6-6.2 2.3-15.6 2.1-24.1l1-101.1zM1546.7 572c-75.5 0-130-64.6-130-194.5 0-137.8 64.6-196.1 133.8-196.1 74.7 0 128.4 66.9 128.4 194.5 0 150.2-73.9 196.1-131.5 196.1h-.7zm2.3-57c45.1 0 55.3-80.2 55.3-137.7 0-56.8-10.1-137.7-56.8-137.7-48.3 0-57.6 80.9-57.6 137.7 0 63 10.9 137.7 58.4 137.7h.7zm175-488h72v203h1.6c19.5-34.2 45.9-49 79.4-49 64.6 0 105.1 73.1 105.1 189.2 0 135.4-55.3 201.6-117.5 201.6-37.4 0-58.4-20.2-74.7-53.7h-2.9l-3.9 48h-63c1.6-25.8 3.1-68.6 2.9-97.4l1-441.2V27zm72 405c0 8.6.8 17.1 3.1 23.4 11.7 45.9 34.2 55.3 49 55.3 43.6 0 59.9-57.6 59.9-135.4 0-72.4-17.1-130.7-60.7-130.7-24.1 0-43.6 28.8-49 56-1.6 7.8-2.3 17.9-2.3 25.7V432zm294.1-40c.8 96.8 42.8 120.9 87.1 120.9 26.5 0 49-6.2 65.4-14l10.9 52.9c-22.6 11.7-56.8 17.9-90.3 17.9-94.9 0-144.7-71.6-144.7-188.3 0-123.7 56.8-200 135.4-200s115.2 75.5 115.2 170.4c0 18.7-.8 30.3-1.6 39.2l-177.4 1zm109.7-53c.8-66.9-22.6-102.7-51.3-102.7-38.1 0-55.3 55.3-57.6 102.7h108.9zM2263.9 180.5c9.2 0 16.6 7.5 16.5 16.7v.1c0 9.5-7.3 16.9-16.6 16.9-9.2 0-16.7-7.4-16.7-16.9-.1-9.2 7.4-16.8 16.6-16.8h.2zm-.1 2.6c-7.4 0-13.5 6.4-13.5 14.2 0 8 6.1 14.3 13.5 14.3 7.5.1 13.4-6.3 13.4-14.2s-5.9-14.3-13.4-14.3zm-3.1 24h-3v-18.8c1.6-.2 3.1-.5 5.3-.5 2.8 0 4.7.6 5.8 1.4 1.1.8 1.7 2.1 1.7 3.9 0 2.5-1.6 4-3.7 4.6v.1c1.6.3 2.8 1.8 3.1 4.6.5 2.9.9 4 1.2 4.6h-3.1c-.5-.6-.9-2.3-1.3-4.8-.5-2.4-1.6-3.3-4-3.3h-2.1l.1 8.2zm0-10.4h2.2c2.5 0 4.6-.9 4.6-3.2 0-1.6-1.2-3.3-4.6-3.3-1 0-1.6.1-2.2.2v6.3zM620.9 42.8c9.2 0 16.6 7.5 16.5 16.7v.1c0 9.5-7.3 16.9-16.6 16.9-9.2 0-16.7-7.4-16.7-16.9-.1-9.2 7.4-16.8 16.6-16.8h.2zm-.1 2.6c-7.4 0-13.5 6.4-13.5 14.2 0 8 6.1 14.3 13.5 14.3 7.5.1 13.5-6.3 13.5-14.2s-5.9-14.3-13.5-14.3zm-3.1 24h-3V50.6c1.8-.3 3.5-.4 5.3-.4 2.8 0 4.7.6 5.8 1.4 1.1.8 1.7 2.1 1.7 3.9 0 2.5-1.6 4-3.7 4.6v.1c1.6.3 2.8 1.8 3.2 4.6.4 2.9.9 4 1.2 4.6h-3.1c-.5-.6-.9-2.3-1.3-4.8-.5-2.4-1.6-3.3-4-3.3h-2.1v8.1zm0-10.4h2.2c2.5 0 4.6-.9 4.6-3.2 0-1.6-1.2-3.3-4.6-3.3-1 0-1.6.1-2.2.2V59z"/><path class="st1" d="M374.6 42.8h218.5v523.1zM297.6 235.5l-95.5 225.1H304l41.6 105.2h91.2L303.7 248.1M2 42.8h218.7L2 565.9z"/></svg>