<svg xmlns="http://www.w3.org/2000/svg" viewBox="0 0 789.82 130.493"><g fill="#14A085"><path d="M101.585 29.416h-34.8v94.364h-27.95V29.416H4.67V7.836h96.913v21.58zM185.278 74.568H141.32v27.712h51.92v21.5h-79.87V7.837h80.03v21.58h-52.08v24.447h43.957v20.705zM241.34 7.836l25.88 80.667 25.8-80.667h36.79V123.78h-28.03V96.705l2.708-55.424-28.03 82.5h-18.475l-28.11-82.58 2.708 55.504v27.075h-27.95V7.835h36.71zM420.59 77.594h-45.07v46.187h-27.952V7.837h77.562v21.58h-49.61v26.677h45.07v21.5zM534.943 68.198c0 11.308-2.1 21.315-6.29 30.02-4.195 8.708-10.154 15.41-17.88 20.107-7.723 4.698-16.522 7.048-26.396 7.048-9.875 0-18.634-2.27-26.28-6.81-7.644-4.538-13.603-11.028-17.876-19.47-4.273-8.44-6.517-18.128-6.728-29.065v-6.53c0-11.36 2.083-21.38 6.252-30.06 4.167-8.68 10.14-15.382 17.917-20.108 7.777-4.725 16.63-7.087 26.56-7.087 9.82 0 18.58 2.337 26.277 7.008 7.697 4.673 13.683 11.322 17.957 19.95 4.272 8.626 6.437 18.514 6.49 29.662v5.336zm-28.428-4.858c0-11.52-1.925-20.266-5.773-26.24-3.85-5.97-9.357-8.957-16.523-8.957-14.017 0-21.423 10.51-22.22 31.534l-.08 8.52c0 11.36 1.885 20.096 5.655 26.2 3.77 6.105 9.37 9.157 16.803 9.157 7.06 0 12.502-3 16.324-8.998s5.76-14.625 5.813-25.88V63.34zM577.307 102.28h48.655v21.5h-76.605V7.837h27.95v94.444zM667.53 123.78h-27.87V7.837h27.87V123.78zM785.147 68.198c0 11.308-2.1 21.315-6.29 30.02-4.195 8.708-10.154 15.41-17.88 20.107-7.723 4.698-16.522 7.048-26.396 7.048-9.874 0-18.633-2.27-26.278-6.81-7.645-4.538-13.604-11.028-17.877-19.47-4.274-8.44-6.518-18.128-6.73-29.065v-6.53c0-11.36 2.084-21.38 6.253-30.06 4.167-8.68 10.14-15.382 17.917-20.108 7.776-4.725 16.63-7.087 26.558-7.087 9.82 0 18.58 2.337 26.278 7.008 7.698 4.673 13.684 11.322 17.958 19.95 4.272 8.626 6.437 18.514 6.49 29.662v5.336zM756.72 63.34c0-11.52-1.926-20.266-5.774-26.24-3.85-5.97-9.357-8.957-16.523-8.957-14.016 0-21.422 10.51-22.218 31.534l-.08 8.52c0 11.36 1.884 20.096 5.654 26.2 3.768 6.105 9.368 9.157 16.802 9.157 7.06 0 12.502-3 16.324-8.998s5.76-14.625 5.813-25.88V63.34z"/></g></svg>