<?xml version="1.0" encoding="utf-8"?>
<!-- Generator: Adobe Illustrator 21.1.0, SVG Export Plug-In . SVG Version: 6.00 Build 0)  -->
<svg version="1.1" id="Layer_1" xmlns="http://www.w3.org/2000/svg" xmlns:xlink="http://www.w3.org/1999/xlink" x="0px" y="0px"
	 viewBox="0 0 2500 351" style="enable-background:new 0 0 2500 351;" xml:space="preserve">
<style type="text/css">
	.st0{fill:#666;transition:.5s}
	svg:hover .st0{fill:#10111C;}
</style>
<path class="st0" d="M327.4,1v200.3c0,68.5-33.1,109-132.4,109c-99.6,0-132.8-40.5-132.8-109V60.5C60.9,27.1,33.6,0.3,0,0.3v38.9
	c12.2,0,21.8,9.4,23,21.3V215c0,79.4,62.3,135.8,172,135.8c109.6,0,171.6-56.4,171.6-135.8V1H327.4z M1467.4,304.6v-93.8
	c0-12.9,11-23.5,23.6-23.7h171v-39.5h-171.6c-7.9,0.2-15.8,1.9-23.1,5v-113h279V0.2h-318.7V344H1758v-39.3L1467.4,304.6
	L1467.4,304.6z M2174.7,172.4c-8.3,0-16.1,1.7-23.4,4.6L2151,37.3l215.4-0.1c37.3-0.1,67.6,30.1,67.6,67.4c0,0.1,0,0.1,0,0.2
	c0,37.4-30.2,67.7-67.6,67.7L2174.7,172.4z M2475.9,307c-9.5,7.6-22.9,6.1-31.1-2.7l-75.2-95.5c56.2-1.7,101.1-47.7,101.1-104.2
	c0-57.8-46.8-104.5-104.5-104.5h-254.5V344h39.3l0.4-112c0.4-12.5,11-22.9,23.7-22.9l144.8,0l94.1,119.4
	c21.7,25.6,59.7,29.8,86.1,9.1L2475.9,307L2475.9,307z M975.8,307l-217-0.2v-97.5c0.2-13,11-24.1,23.9-24.1l193.2,0
	c33.7,0,60.8,27.2,60.8,60.7C1036.6,279.8,1009.4,307,975.8,307 M758.7,37.3l218,0.2c30.5,0,55.3,24.8,55.3,55.4
	c0,30.4-24.7,55.2-55.3,55.2H779.3c-7.1,0.5-14.1,2.1-20.6,4.9L758.7,37.3L758.7,37.3z M1032.4,166.3c22.1-16.9,36.6-43.4,36.6-73.6
	c0-51-41.4-92.5-92.5-92.5L719.4,0.2V344h256.3c54.1,0,97.8-43.9,97.8-98C1073.6,213.1,1057.3,184.1,1032.4,166.3"/>
</svg>
